<svg xmlns="http://www.w3.org/2000/svg" xmlns:xlink="http://www.w3.org/1999/xlink" width="192" height="62" viewBox="0 0 192 62">
  <defs>
    <clipPath id="clip-path">
      <rect id="Rectangle_2997" data-name="Rectangle 2997" width="192" height="62" transform="translate(0.492 0.253)" fill="#11121f"/>
    </clipPath>
  </defs>
  <g id="Group_8845" data-name="Group 8845" transform="translate(-0.461 -0.367)">
    <g id="Group_2732" data-name="Group 2732" transform="translate(-0.031 0.114)" clip-path="url(#clip-path)">
      <path id="Path_4851" data-name="Path 4851" d="M0,50.956C0,32.6,5.25,25.8,19.278,25.8c13.126,0,19.2,5.9,19.2,18.683,0,13.6-4.676,19.338-13.946,20.24-12.059,1.147-7.3,12.783-14.6,12.783C3.446,77.506,0,66.526,0,50.956m29.778-8.932c0-6.392-3.035-7.785-7.383-7.785-4.1,0-7.383,1.393-7.383,7.785,0,5.162,1.641,7.7,7.383,7.7,5.086,0,7.383-2.376,7.383-7.7" transform="translate(0 -15.253)" fill="#1e304d"/>
      <path id="Path_4852" data-name="Path 4852" d="M104.894,31.958c0-13.6,4.676-19.338,13.946-20.24C130.9,10.572,126.141,0,133.441,0c6.481,0,9.926,9.915,9.926,25.485,0,18.355-5.25,25.156-19.278,25.156-13.126,0-19.2-5.9-19.2-18.683m23.954-4.67c0-6.392-3.281-7.785-7.383-7.785-4.348,0-7.383,1.393-7.383,7.785,0,5.326,2.3,7.7,7.383,7.7,5.742,0,7.383-2.54,7.383-7.7" transform="translate(-61.869 -0.025)" fill="#1e304d"/>
      <path id="Path_4853" data-name="Path 4853" d="M210.694,31.958c0-13.6,4.676-19.338,13.946-20.24C236.7,10.572,231.941,0,239.241,0c6.481,0,9.926,9.915,9.926,25.485,0,18.355-5.25,25.156-19.278,25.156-13.126,0-19.2-5.9-19.2-18.683m23.954-4.67c0-6.392-3.281-7.785-7.383-7.785-4.348,0-7.383,1.393-7.383,7.785,0,5.326,2.3,7.7,7.383,7.7,5.742,0,7.383-2.54,7.383-7.7" transform="translate(-124.273 -0.025)" fill="#1e304d"/>
      <path id="Path_4854" data-name="Path 4854" d="M370.493,46.257C370.574,35.2,375.824,27,389.77,27c10.583,0,19.935,3.851,19.935,14.5,0,7.867-5.087,9.587-5.087,11.636s6.4,1.8,6.4,5.654c0,4.917-8.7,7.7-20.754,7.7-15.094,0-19.852-8.522-19.77-20.24m30.353-3.36c0-6.392-3.035-7.785-7.383-7.785-4.1,0-7.383,1.393-7.383,7.785,0,5.162,1.641,7.7,7.383,7.7,5.086,0,7.383-2.376,7.383-7.7" transform="translate(-218.525 -15.962)" fill="#1e304d"/>
      <path id="Path_4855" data-name="Path 4855" d="M335.844,31.276a.41.41,0,0,0,.7-.29V29.927C336.545,11.654,330.8,0,328.341,0c-1.772,0-5.241,6.044-7.047,16.244a.826.826,0,0,0,.229.726Z" transform="translate(-189.5 -0.024)" fill="#e65847"/>
      <path id="Path_4856" data-name="Path 4856" d="M319.508,54.484a.411.411,0,0,0-.7.25c-.2,2.288-.315,4.72-.315,7.282,0,19.093,5.742,20.714,8.2,20.714,2.068,0,6.451-1.147,7.8-12.835a.826.826,0,0,0-.236-.676Z" transform="translate(-187.856 -32.113)" fill="#1e304d"/>
    </g>
  </g>
</svg>
